<svg width="447" height="526" viewBox="0 0 447 526" fill="none" xmlns="http://www.w3.org/2000/svg">
<path d="M213.678 402.523L213.498 410.197L212.119 469.222C212.763 473.891 213.508 480.33 209.347 486.314C205.405 491.982 198.015 495.868 187.47 499.704L187.32 499.759L187.168 499.807L133.007 516.945L131.902 517.295H130.744C128.109 517.295 125.754 517.348 123.632 517.404C121.558 517.458 119.579 517.519 117.893 517.523C116.244 517.526 114.475 517.481 112.854 517.233C111.369 517.004 108.93 516.462 106.834 514.66C104.307 512.488 103.472 509.578 103.501 507.07C103.526 504.928 104.161 502.917 104.75 501.375C105.946 498.243 108.151 494.1 110.84 489.103L110.861 489.063L110.883 489.024L119.429 473.588V402.523H213.678Z" fill="#FFF8E6" stroke="black" stroke-width="15"/>
<path d="M338 390.023H244V463.432H323.145L338 390.023Z" fill="black"/>
<path d="M327.083 443.971C317.66 441.511 304.886 441.511 295.462 443.971L250.039 455.829C237.452 462.571 246.178 465.944 265.85 475.161L316.36 495.75C336.758 495.75 339.13 499.977 328.763 475.161L327.083 443.971Z" fill="black"/>
<path d="M431 240.148C404.458 407.648 338.099 407.648 223.5 407.648C108.901 407.648 48.1982 407.648 16 240.148C16 125.549 108.901 22.2467 223.5 22.2467C338.099 22.2467 431 125.549 431 240.148Z" fill="#FFF8E6"/>
<path d="M35.9789 40.4977C33.3266 24.551 48.9318 11.7131 64.0682 17.3895L133.804 43.5417C148.94 49.2182 152.256 69.1516 139.771 79.4219L82.2552 126.739C69.771 137.009 50.8505 129.913 48.1982 113.967L35.9789 40.4977Z" fill="#5CCCA4"/>
<path d="M416.677 40.4977C419.329 24.551 403.724 11.7131 388.588 17.3895L318.852 43.5417C303.716 49.2182 300.4 69.1516 312.884 79.4219L370.401 126.739C382.885 137.009 401.805 129.913 404.458 113.967L416.677 40.4977Z" fill="#5CCCA4"/>
<path d="M385.778 9.89862C406.681 2.05972 428.231 19.789 424.568 41.8107L412.35 115.279C411.668 119.379 410.206 123.053 408.17 126.23C427.754 160.327 439 199.587 439 240.148V240.778L438.901 241.4C425.528 325.791 401.77 370.706 364.445 393.535C345.968 404.837 324.831 410.288 301.45 412.978C278.152 415.658 252.022 415.648 223.5 415.648C194.984 415.648 169.196 415.659 146.327 412.976C123.36 410.281 102.74 404.817 84.6123 393.495C48.1129 370.7 24.3362 325.894 8.14355 241.657L8 240.909V240.148C8.00001 197.526 20.4164 156.342 41.8779 121.074C41.1781 119.254 40.6459 117.319 40.3066 115.279L28.0869 41.8107C24.4243 19.7892 45.9744 2.06012 66.877 9.89862L134.461 35.2433C161.565 21.85 191.7 14.2463 223.5 14.2463C256.259 14.2463 287.251 22.3157 314.982 36.4709C315.331 36.3251 315.685 36.1853 316.043 36.051L385.778 9.89862Z" stroke="black" stroke-width="16"/>
<mask id="mask0_9_3" style="mask-type:alpha" maskUnits="userSpaceOnUse" x="16" y="16" width="415" height="392">
<path d="M431 240.148C404.458 407.648 338.099 407.648 223.5 407.648C108.901 407.648 48.1982 407.648 16 240.148C16 125.549 108.901 22.2467 223.5 22.2467C338.099 22.2467 431 125.549 431 240.148Z" fill="white"/>
<path d="M35.9789 40.4977C33.3266 24.551 48.9318 11.7131 64.0682 17.3895L133.804 43.5417C148.94 49.2182 152.256 69.1516 139.771 79.4219L82.2552 126.739C69.771 137.009 50.8505 129.913 48.1982 113.967L35.9789 40.4977Z" fill="#20D6E3"/>
<path d="M416.677 40.4977C419.329 24.551 403.724 11.7131 388.588 17.3895L318.852 43.5417C303.716 49.2182 300.4 69.1516 312.884 79.4219L370.401 126.739C382.885 137.009 401.805 129.913 404.458 113.967L416.677 40.4977Z" fill="#20D6E3"/>
</mask>
<g mask="url(#mask0_9_3)">
<path d="M236.416 6.74028C232.351 -67.2866 315.455 -105.288 384.642 -101.642C392.563 -101.224 397.577 -100.847 398.047 -100.549C400.521 -98.9785 550.102 136.188 549.368 138.512C548.814 140.209 526.871 202.214 513.461 240.088C511.375 245.978 508.39 251.432 504.614 256.263C486.151 279.885 453.416 283.189 429.579 265.94C413.528 254.326 395.32 242.449 379.701 235.548C341.593 218.71 301.137 203.572 271.932 143.005C263.198 124.894 257.575 110.021 253.702 96.9649C251.864 106.995 250.513 116.824 250.066 125.555C245.979 205.413 186.674 296.143 100.835 302.269C39.5072 306.645 -3.17719 283.6 -20.8634 213.772C-21.5295 211.142 -21.8745 209.551 -21.8204 209.261C-21.304 206.519 33.9545 136.024 35.9999 136.023C37.5087 136.023 130.988 30.5663 165 31.5225C170.35 31.673 224.511 2.9505 229.517 4.98443C231.985 5.98865 234.331 7.18968 236.545 8.56548C236.494 7.96257 236.45 7.35408 236.416 6.74028Z" fill="#5CCCA4"/>
</g>
<circle cx="137.5" cy="196.747" r="55.5" fill="#FFF8E6"/>
<circle cx="123.5" cy="193.747" r="48.5" fill="black"/>
<circle cx="317.803" cy="196.747" r="55.5" fill="#FFF8E6"/>
<circle cx="303.803" cy="193.747" r="48.5" fill="black"/>
<path d="M231.428 296.247C228.349 301.58 220.651 301.58 217.572 296.247L200.684 266.997C197.605 261.663 201.454 254.997 207.612 254.997L241.387 254.997C247.546 254.997 251.395 261.663 248.316 266.997L231.428 296.247Z" fill="black"/>
<path d="M223.763 287.023C223.763 287.023 225.905 311.952 217.311 319.681C208.551 327.559 137.742 335.534 120 327.997" stroke="black" stroke-width="16"/>
<path d="M224.237 287.023C224.237 287.023 222.095 311.952 230.689 319.681C239.449 327.559 310.258 335.534 328 327.997" stroke="black" stroke-width="16"/>
</svg>
